<?xml version="1.0" encoding="UTF-8"?>
<!DOCTYPE svg PUBLIC "-//W3C//DTD SVG 1.1//EN" "http://www.w3.org/Graphics/SVG/1.1/DTD/svg11.dtd">
<!-- Creator: CorelDRAW -->
<svg xmlns="http://www.w3.org/2000/svg" xml:space="preserve" width="165mm" height="221mm" version="1.1" style="shape-rendering:geometricPrecision; text-rendering:geometricPrecision; image-rendering:optimizeQuality; fill-rule:evenodd; clip-rule:evenodd"
viewBox="0 0 16500 22100"
 xmlns:xlink="http://www.w3.org/1999/xlink"
 xmlns:xodm="http://www.corel.com/coreldraw/odm/2003">
 <defs>
  <style type="text/css">
   <![CDATA[
    .str0 {stroke:#050D42;stroke-width:7.62;stroke-miterlimit:22.9256}
    .fil2 {fill:none;fill-rule:nonzero}
    .fil0 {fill:#050D42;fill-rule:nonzero}
    .fil1 {fill:#2F4BFF;fill-rule:nonzero}
   ]]>
  </style>
 </defs>
 <g id="Слой_x0020_1">
  <metadata id="CorelCorpID_0Corel-Layer"/>
  <g id="_1807488260800">
   <g id="genetic-data-svgrepo-com.svg">
    <path class="fil0" d="M8209.9 18528.62c-1918.23,0 -3307.29,-4134.11 -3307.29,-9260.42 0,-5126.31 1389.06,-9260.42 3307.29,-9260.42 1918.23,0 3307.29,4134.11 3307.29,9260.42 0,5126.31 -1389.06,9260.42 -3307.29,9260.42zm0 -661.46c1355.99,0 2645.83,-3836.46 2645.83,-8598.96 0,-4762.5 -1289.84,-8598.96 -2645.83,-8598.96 -1355.99,0 -2645.83,3836.46 -2645.83,8598.96 0,4762.5 1289.84,8598.96 2645.83,8598.96z"/>
    <path class="fil0" d="M206.25 13898.41c-992.19,-1653.65 1918.23,-4927.86 6350,-7507.55 4431.77,-2579.69 8698.18,-3406.51 9657.3,-1752.87 959.12,1653.64 -1918.23,4927.87 -6350,7507.55 -4431.77,2579.68 -8698.18,3406.51 -9657.3,1752.87zm562.24 -330.73c694.53,1190.63 4663.28,363.8 8764.32,-2017.45 4101.04,-2381.25 6813.03,-5390.88 6118.5,-6581.51 -694.53,-1190.63 -4663.28,-363.8 -8764.33,2017.45 -4101.05,2381.25 -6813.02,5390.88 -6118.49,6581.51z"/>
    <path class="fil0" d="M16213.55 13898.41c-959.11,1653.65 -5258.59,793.75 -9657.29,-1752.86 -4398.7,-2546.61 -7342.19,-5853.91 -6350.01,-7507.56 992.18,-1653.65 5258.59,-793.75 9657.29,1752.86 4398.7,2546.61 7342.19,5853.91 6350.01,7507.56zm-562.24 -330.73c694.53,-1190.63 -2017.45,-4200.26 -6118.49,-6581.51 -4101.04,-2381.25 -8102.87,-3208.07 -8764.33,-2017.45 -661.46,1190.62 2017.45,4200.26 6118.49,6581.51 4101.04,2381.25 8102.86,3208.07 8764.32,2017.45l0.01 0z"/>
    <path class="fil1" d="M8209.9 10921.85c-926.04,0 -1653.65,-727.6 -1653.65,-1653.65 0,-926.05 727.6,-1653.65 1653.65,-1653.65 926.05,0 1653.65,727.6 1653.65,1653.65 0,926.05 -727.6,1653.65 -1653.65,1653.65zm-4960.94 -5787.76c-562.24,0 -992.19,-429.95 -992.19,-992.19 0,-562.24 429.95,-992.19 992.19,-992.19 562.24,0 992.19,429.95 992.19,992.19 0,562.24 -429.95,992.19 -992.19,992.19zm2976.56 11740.88c-562.24,0 -992.19,-429.95 -992.19,-992.19 0,-562.24 429.95,-992.19 992.19,-992.19 562.24,0 992.19,429.95 992.19,992.19 0,562.24 -429.95,992.19 -992.19,992.19zm9260.42 -8929.69c-562.24,0 -992.19,-429.95 -992.19,-992.19 0,-562.24 429.95,-992.19 992.19,-992.19 562.24,0 992.19,429.95 992.19,992.19 0,562.24 -429.95,992.19 -992.19,992.19z"/>
   </g>
   <path class="fil0" d="M5078.26 22061.31l-682.53 0 -270.23 -575.03 -1255.04 0 -260.04 575.03 -670.14 0 1214.98 -2525.89 669.4 0 1253.6 2525.89zm-1158.18 -1001.89l-434.85 -934.86 -422.48 934.86 857.33 0z"/>
   <polygon id="_1" class="fil0" points="5948.69,22061.31 5948.69,19962.28 5022.16,19962.28 5022.16,19535.42 7504.57,19535.42 7504.57,19962.28 6582.41,19962.28 6582.41,22061.31 "/>
   <path id="_2" class="fil0" d="M7858.57 20813.65c0,-257.53 48.08,-473.9 143.5,-649.11 70.67,-128.76 168.26,-244.59 291.37,-346.9 123.09,-102.3 257.86,-178.15 404.27,-228.13 195.2,-66.44 420.28,-99.95 675.22,-99.95 461.82,0 830.39,115.83 1107.91,346.9 276.8,231.65 415.19,553.27 415.19,965.43 0,408.64 -137.66,728.49 -412.28,958.97 -274.61,231.07 -642.45,346.31 -1102.07,346.31 -465.45,0 -836.22,-114.65 -1110.82,-344.55 -274.61,-229.3 -412.29,-545.63 -412.29,-948.97zm651.2 -17.05c0,286.34 82.31,503.3 246.21,651.46 163.89,147.58 372.21,221.67 624.24,221.67 252.75,0 459.62,-73.5 622.06,-219.9 161.71,-146.99 242.55,-366.89 242.55,-660.28 0,-289.87 -78.66,-506.24 -236.73,-648.53 -157.34,-142.87 -366.38,-214.02 -627.88,-214.02 -260.77,0 -471.28,72.32 -630.8,216.37 -159.52,144.64 -239.65,362.19 -239.65,653.23z"/>
   <polygon id="_3" class="fil0" points="11534.12,22061.31 11534.12,19535.42 12483.24,19535.42 13044.11,21258.15 13598.42,19535.42 14549.72,19535.42 14549.72,22061.31 13964.08,22061.31 13961.89,20072.82 13344.94,22061.31 12735.99,22061.31 12121.95,20072.82 12119.75,22061.31 "/>
   <path id="_4" class="fil2 str0" d="M5078.26 22061.31l-682.53 0 -270.23 -575.03 -1255.04 0 -260.04 575.03 -670.14 0 1214.98 -2525.89 669.4 0 1253.6 2525.89zm-1158.18 -1001.89l-434.85 -934.86 -422.48 934.86 857.33 0z"/>
   <polygon id="_5" class="fil2 str0" points="5948.69,22061.31 5948.69,19962.28 5022.16,19962.28 5022.16,19535.42 7504.57,19535.42 7504.57,19962.28 6582.41,19962.28 6582.41,22061.31 "/>
   <path id="_6" class="fil2 str0" d="M7858.57 20813.65c0,-257.53 48.08,-473.9 143.5,-649.11 70.67,-128.76 168.26,-244.59 291.37,-346.9 123.09,-102.3 257.86,-178.15 404.27,-228.13 195.2,-66.44 420.28,-99.95 675.22,-99.95 461.82,0 830.39,115.83 1107.91,346.9 276.8,231.65 415.19,553.27 415.19,965.43 0,408.64 -137.66,728.49 -412.28,958.97 -274.61,231.07 -642.45,346.31 -1102.07,346.31 -465.45,0 -836.22,-114.65 -1110.82,-344.55 -274.61,-229.3 -412.29,-545.63 -412.29,-948.97zm651.2 -17.05c0,286.34 82.31,503.3 246.21,651.46 163.89,147.58 372.21,221.67 624.24,221.67 252.75,0 459.62,-73.5 622.06,-219.9 161.71,-146.99 242.55,-366.89 242.55,-660.28 0,-289.87 -78.66,-506.24 -236.73,-648.53 -157.34,-142.87 -366.38,-214.02 -627.88,-214.02 -260.77,0 -471.28,72.32 -630.8,216.37 -159.52,144.64 -239.65,362.19 -239.65,653.23z"/>
   <polygon id="_7" class="fil2 str0" points="11534.12,22061.31 11534.12,19535.42 12483.24,19535.42 13044.11,21258.15 13598.42,19535.42 14549.72,19535.42 14549.72,22061.31 13964.08,22061.31 13961.89,20072.82 13344.94,22061.31 12735.99,22061.31 12121.95,20072.82 12119.75,22061.31 "/>
  </g>
 </g>
</svg>
